<svg xmlns="http://www.w3.org/2000/svg" xmlns:xlink="http://www.w3.org/1999/xlink" contentStyleType="text/css" data-diagram-type="SEQUENCE" height="952px" preserveAspectRatio="none" style="width:1701px;height:952px;background:#FFFFFF;" version="1.1" viewBox="0 0 1701 952" width="1701px" zoomAndPan="magnify"><defs/><g><g><title>User</title><rect fill="#000000" fill-opacity="0.00000" height="790.5859" width="8" x="19.9551" y="81.2969"/><line style="stroke:#181818;stroke-width:0.5;stroke-dasharray:5,5;" x1="23" x2="23" y1="81.2969" y2="871.8828"/></g><g><title>React SPA</title><rect fill="#000000" fill-opacity="0.00000" height="790.5859" width="8" x="309.0659" y="81.2969"/><line style="stroke:#181818;stroke-width:0.5;stroke-dasharray:5,5;" x1="312.3345" x2="312.3345" y1="81.2969" y2="871.8828"/></g><g><title>FastAPI .agent.plan</title><rect fill="#000000" fill-opacity="0.00000" height="790.5859" width="8" x="534.0718" y="81.2969"/><line style="stroke:#181818;stroke-width:0.5;stroke-dasharray:5,5;" x1="538.0132" x2="538.0132" y1="81.2969" y2="871.8828"/></g><g><title>Planner . Executor</title><rect fill="#000000" fill-opacity="0.00000" height="790.5859" width="8" x="740.8789" y="81.2969"/><line style="stroke:#181818;stroke-width:0.5;stroke-dasharray:5,5;" x1="744.3945" x2="744.3945" y1="81.2969" y2="871.8828"/></g><g><title>Scraper</title><rect fill="#000000" fill-opacity="0.00000" height="790.5859" width="8" x="992.7925" y="81.2969"/><line style="stroke:#181818;stroke-width:0.5;stroke-dasharray:5,5;" x1="996.7051" x2="996.7051" y1="81.2969" y2="871.8828"/></g><g><title>Comparer</title><rect fill="#000000" fill-opacity="0.00000" height="790.5859" width="8" x="1078.6646" y="81.2969"/><line style="stroke:#181818;stroke-width:0.5;stroke-dasharray:5,5;" x1="1081.8799" x2="1081.8799" y1="81.2969" y2="871.8828"/></g><g><title>Forecaster</title><rect fill="#000000" fill-opacity="0.00000" height="790.5859" width="8" x="1174.6572" y="81.2969"/><line style="stroke:#181818;stroke-width:0.5;stroke-dasharray:5,5;" x1="1178.4492" x2="1178.4492" y1="81.2969" y2="871.8828"/></g><g><title>MySQL</title><rect fill="#000000" fill-opacity="0.00000" height="790.5859" width="8" x="1420.0112" y="81.2969"/><line style="stroke:#181818;stroke-width:0.5;stroke-dasharray:5,5;" x1="1423.9761" x2="1423.9761" y1="81.2969" y2="871.8828"/></g><g><title>Model Store</title><rect fill="#000000" fill-opacity="0.00000" height="790.5859" width="8" x="1505.9438" y="81.2969"/><line style="stroke:#181818;stroke-width:0.5;stroke-dasharray:5,5;" x1="1509.0464" x2="1509.0464" y1="81.2969" y2="871.8828"/></g><g><title>Open-Meteo API</title><rect fill="#000000" fill-opacity="0.00000" height="790.5859" width="8" x="1628.043" y="81.2969"/><line style="stroke:#181818;stroke-width:0.5;stroke-dasharray:5,5;" x1="1631.8413" x2="1631.8413" y1="81.2969" y2="871.8828"/></g><g class="participant participant-head" data-participant="U"><text fill="#000000" font-family="sans-serif" font-size="14" lengthAdjust="spacing" textLength="31.9102" x="5" y="77.9951">User</text><ellipse cx="23.9551" cy="13.5" fill="#E2E2F0" rx="8" ry="8" style="stroke:#181818;stroke-width:0.5;"/><path d="M23.9551,21.5 L23.9551,48.5 M10.9551,29.5 L36.9551,29.5 M23.9551,48.5 L10.9551,63.5 M23.9551,48.5 L36.9551,63.5" fill="none" style="stroke:#181818;stroke-width:0.5;"/></g><g class="participant participant-tail" data-participant="U"><text fill="#000000" font-family="sans-serif" font-size="14" lengthAdjust="spacing" textLength="31.9102" x="5" y="883.8779">User</text><ellipse cx="23.9551" cy="895.6797" fill="#E2E2F0" rx="8" ry="8" style="stroke:#181818;stroke-width:0.5;"/><path d="M23.9551,903.6797 L23.9551,930.6797 M10.9551,911.6797 L36.9551,911.6797 M23.9551,930.6797 L10.9551,945.6797 M23.9551,930.6797 L36.9551,945.6797" fill="none" style="stroke:#181818;stroke-width:0.5;"/></g><g class="participant participant-head" data-participant="SPA"><rect fill="#E2E2F0" height="30.2969" rx="2.5" ry="2.5" style="stroke:#181818;stroke-width:0.5;" width="85.4629" x="270.3345" y="50"/><text fill="#000000" font-family="sans-serif" font-size="14" lengthAdjust="spacing" textLength="71.4629" x="277.3345" y="69.9951">React SPA</text></g><g class="participant participant-tail" data-participant="SPA"><rect fill="#E2E2F0" height="30.2969" rx="2.5" ry="2.5" style="stroke:#181818;stroke-width:0.5;" width="85.4629" x="270.3345" y="870.8828"/><text fill="#000000" font-family="sans-serif" font-size="14" lengthAdjust="spacing" textLength="71.4629" x="277.3345" y="890.8779">React SPA</text></g><g class="participant participant-head" data-participant="PLAN"><rect fill="#E2E2F0" height="30.2969" rx="2.5" ry="2.5" style="stroke:#181818;stroke-width:0.5;" width="150.1172" x="463.0132" y="50"/><text fill="#000000" font-family="sans-serif" font-size="14" lengthAdjust="spacing" textLength="136.1172" x="470.0132" y="69.9951">FastAPI /agent/plan</text></g><g class="participant participant-tail" data-participant="PLAN"><rect fill="#E2E2F0" height="30.2969" rx="2.5" ry="2.5" style="stroke:#181818;stroke-width:0.5;" width="150.1172" x="463.0132" y="870.8828"/><text fill="#000000" font-family="sans-serif" font-size="14" lengthAdjust="spacing" textLength="136.1172" x="470.0132" y="890.8779">FastAPI /agent/plan</text></g><g class="participant participant-head" data-participant="PX"><rect fill="#E2E2F0" height="30.2969" rx="2.5" ry="2.5" style="stroke:#181818;stroke-width:0.5;" width="148.9688" x="670.3945" y="50"/><text fill="#000000" font-family="sans-serif" font-size="14" lengthAdjust="spacing" textLength="134.9688" x="677.3945" y="69.9951">Planner &amp; Executor</text></g><g class="participant participant-tail" data-participant="PX"><rect fill="#E2E2F0" height="30.2969" rx="2.5" ry="2.5" style="stroke:#181818;stroke-width:0.5;" width="148.9688" x="670.3945" y="870.8828"/><text fill="#000000" font-family="sans-serif" font-size="14" lengthAdjust="spacing" textLength="134.9688" x="677.3945" y="890.8779">Planner &amp; Executor</text></g><g class="participant participant-head" data-participant="S"><rect fill="#E2E2F0" height="30.2969" rx="2.5" ry="2.5" style="stroke:#181818;stroke-width:0.5;" width="68.1748" x="962.7051" y="50"/><text fill="#000000" font-family="sans-serif" font-size="14" lengthAdjust="spacing" textLength="54.1748" x="969.7051" y="69.9951">Scraper</text></g><g class="participant participant-tail" data-participant="S"><rect fill="#E2E2F0" height="30.2969" rx="2.5" ry="2.5" style="stroke:#181818;stroke-width:0.5;" width="68.1748" x="962.7051" y="870.8828"/><text fill="#000000" font-family="sans-serif" font-size="14" lengthAdjust="spacing" textLength="54.1748" x="969.7051" y="890.8779">Scraper</text></g><g class="participant participant-head" data-participant="C"><rect fill="#E2E2F0" height="30.2969" rx="2.5" ry="2.5" style="stroke:#181818;stroke-width:0.5;" width="83.5693" x="1040.8799" y="50"/><text fill="#000000" font-family="sans-serif" font-size="14" lengthAdjust="spacing" textLength="69.5693" x="1047.8799" y="69.9951">Comparer</text></g><g class="participant participant-tail" data-participant="C"><rect fill="#E2E2F0" height="30.2969" rx="2.5" ry="2.5" style="stroke:#181818;stroke-width:0.5;" width="83.5693" x="1040.8799" y="870.8828"/><text fill="#000000" font-family="sans-serif" font-size="14" lengthAdjust="spacing" textLength="69.5693" x="1047.8799" y="890.8779">Comparer</text></g><g class="participant participant-head" data-participant="F"><rect fill="#E2E2F0" height="30.2969" rx="2.5" ry="2.5" style="stroke:#181818;stroke-width:0.5;" width="88.416" x="1134.4492" y="50"/><text fill="#000000" font-family="sans-serif" font-size="14" lengthAdjust="spacing" textLength="74.416" x="1141.4492" y="69.9951">Forecaster</text></g><g class="participant participant-tail" data-participant="F"><rect fill="#E2E2F0" height="30.2969" rx="2.5" ry="2.5" style="stroke:#181818;stroke-width:0.5;" width="88.416" x="1134.4492" y="870.8828"/><text fill="#000000" font-family="sans-serif" font-size="14" lengthAdjust="spacing" textLength="74.416" x="1141.4492" y="890.8779">Forecaster</text></g><g class="participant participant-head" data-participant="DB"><text fill="#000000" font-family="sans-serif" font-size="14" lengthAdjust="spacing" textLength="48.0703" x="1396.9761" y="77.9951">MySQL</text><path d="M1406.0112,29 C1406.0112,19 1424.0112,19 1424.0112,19 C1424.0112,19 1442.0112,19 1442.0112,29 L1442.0112,55 C1442.0112,65 1424.0112,65 1424.0112,65 C1424.0112,65 1406.0112,65 1406.0112,55 L1406.0112,29" fill="#E2E2F0" style="stroke:#181818;stroke-width:0.5;"/><path d="M1406.0112,29 C1406.0112,39 1424.0112,39 1424.0112,39 C1424.0112,39 1442.0112,39 1442.0112,29" fill="none" style="stroke:#181818;stroke-width:0.5;"/></g><g class="participant participant-tail" data-participant="DB"><text fill="#000000" font-family="sans-serif" font-size="14" lengthAdjust="spacing" textLength="48.0703" x="1396.9761" y="883.8779">MySQL</text><path d="M1406.0112,897.1797 C1406.0112,887.1797 1424.0112,887.1797 1424.0112,887.1797 C1424.0112,887.1797 1442.0112,887.1797 1442.0112,897.1797 L1442.0112,923.1797 C1442.0112,933.1797 1424.0112,933.1797 1424.0112,933.1797 C1424.0112,933.1797 1406.0112,933.1797 1406.0112,923.1797 L1406.0112,897.1797" fill="#E2E2F0" style="stroke:#181818;stroke-width:0.5;"/><path d="M1406.0112,897.1797 C1406.0112,907.1797 1424.0112,907.1797 1424.0112,907.1797 C1424.0112,907.1797 1442.0112,907.1797 1442.0112,897.1797" fill="none" style="stroke:#181818;stroke-width:0.5;"/></g><g class="participant participant-head" data-participant="MS"><rect fill="#E2E2F0" height="30.2969" rx="2.5" ry="2.5" style="stroke:#181818;stroke-width:0.5;" width="97.7949" x="1461.0464" y="50"/><text fill="#000000" font-family="sans-serif" font-size="14" lengthAdjust="spacing" textLength="83.7949" x="1468.0464" y="69.9951">Model Store</text></g><g class="participant participant-tail" data-participant="MS"><rect fill="#E2E2F0" height="30.2969" rx="2.5" ry="2.5" style="stroke:#181818;stroke-width:0.5;" width="97.7949" x="1461.0464" y="870.8828"/><text fill="#000000" font-family="sans-serif" font-size="14" lengthAdjust="spacing" textLength="83.7949" x="1468.0464" y="890.8779">Model Store</text></g><g class="participant participant-head" data-participant="OM"><rect fill="#E2E2F0" height="30.2969" rx="2.5" ry="2.5" style="stroke:#181818;stroke-width:0.5;" width="126.4033" x="1568.8413" y="50"/><text fill="#000000" font-family="sans-serif" font-size="14" lengthAdjust="spacing" textLength="112.4033" x="1575.8413" y="69.9951">Open-Meteo API</text></g><g class="participant participant-tail" data-participant="OM"><rect fill="#E2E2F0" height="30.2969" rx="2.5" ry="2.5" style="stroke:#181818;stroke-width:0.5;" width="126.4033" x="1568.8413" y="870.8828"/><text fill="#000000" font-family="sans-serif" font-size="14" lengthAdjust="spacing" textLength="112.4033" x="1575.8413" y="890.8779">Open-Meteo API</text></g><g class="message" data-participant-1="U" data-participant-2="SPA"><polygon fill="#181818" points="301.0659,123.5625,311.0659,127.5625,301.0659,131.5625,305.0659,127.5625" style="stroke:#181818;stroke-width:1;"/><line style="stroke:#181818;stroke-width:1;" x1="23.9551" x2="307.0659" y1="127.5625" y2="127.5625"/><text fill="#000000" font-family="sans-serif" font-size="13" font-weight="bold" lengthAdjust="spacing" textLength="9.0454" x="30.9551" y="114.9302">1</text><text fill="#000000" font-family="sans-serif" font-size="13" lengthAdjust="spacing" textLength="252.0654" x="44.0005" y="107.3638">Prompt: "Scrape Colombo &amp; Kandy 7d,</text><text fill="#000000" font-family="sans-serif" font-size="13" lengthAdjust="spacing" textLength="155.2192" x="44.0005" y="122.4966">compare &amp; forecast 7d"</text></g><g class="message" data-participant-1="SPA" data-participant-2="PLAN"><polygon fill="#181818" points="526.0718,167.8281,536.0718,171.8281,526.0718,175.8281,530.0718,171.8281" style="stroke:#181818;stroke-width:1;"/><line style="stroke:#181818;stroke-width:1;" x1="313.0659" x2="532.0718" y1="171.8281" y2="171.8281"/><text fill="#000000" font-family="sans-serif" font-size="13" font-weight="bold" lengthAdjust="spacing" textLength="9.0454" x="320.0659" y="159.1958">2</text><text fill="#000000" font-family="sans-serif" font-size="13" lengthAdjust="spacing" textLength="112.7788" x="333.1113" y="151.6294">POST /agent/plan</text><text fill="#000000" font-family="sans-serif" font-size="13" lengthAdjust="spacing" textLength="129.2383" x="333.1113" y="166.7622">(X-PLAN, X-API-KEY)</text></g><g class="message" data-participant-1="PLAN" data-participant-2="PX"><polygon fill="#181818" points="732.8789,196.9609,742.8789,200.9609,732.8789,204.9609,736.8789,200.9609" style="stroke:#181818;stroke-width:1;"/><line style="stroke:#181818;stroke-width:1;" x1="538.0718" x2="738.8789" y1="200.9609" y2="200.9609"/><text fill="#000000" font-family="sans-serif" font-size="13" font-weight="bold" lengthAdjust="spacing" textLength="9.0454" x="545.0718" y="195.895">3</text><text fill="#000000" font-family="sans-serif" font-size="13" lengthAdjust="spacing" textLength="85.7759" x="558.1172" y="195.895">plan(prompt)</text></g><g class="message" data-participant-1="PX" data-participant-2="PX"><line style="stroke:#181818;stroke-width:1;" x1="744.8789" x2="786.8789" y1="245.2266" y2="245.2266"/><line style="stroke:#181818;stroke-width:1;" x1="786.8789" x2="786.8789" y1="245.2266" y2="258.2266"/><line style="stroke:#181818;stroke-width:1;" x1="745.8789" x2="786.8789" y1="258.2266" y2="258.2266"/><polygon fill="#181818" points="755.8789,254.2266,745.8789,258.2266,755.8789,262.2266,751.8789,258.2266" style="stroke:#181818;stroke-width:1;"/><text fill="#000000" font-family="sans-serif" font-size="13" font-weight="bold" lengthAdjust="spacing" textLength="9.0454" x="751.8789" y="232.5942">4</text><text fill="#000000" font-family="sans-serif" font-size="13" lengthAdjust="spacing" textLength="160.6021" x="764.9243" y="225.0278">ask Llama (local Ollama)</text><text fill="#000000" font-family="sans-serif" font-size="13" lengthAdjust="spacing" textLength="102.5464" x="764.9243" y="240.1606">&#8594; JSON step list</text></g><g class="message" data-participant-1="PX" data-participant-2="PLAN"><polygon fill="#181818" points="549.0718,283.3594,539.0718,287.3594,549.0718,291.3594,545.0718,287.3594" style="stroke:#181818;stroke-width:1;"/><line style="stroke:#181818;stroke-width:1;stroke-dasharray:2,2;" x1="543.0718" x2="743.8789" y1="287.3594" y2="287.3594"/><text fill="#000000" font-family="sans-serif" font-size="13" font-weight="bold" lengthAdjust="spacing" textLength="9.0454" x="555.0718" y="282.2935">5</text><text fill="#000000" font-family="sans-serif" font-size="13" lengthAdjust="spacing" textLength="67.0947" x="568.1172" y="282.2935">plan steps</text></g><g class="message" data-participant-1="SPA" data-participant-2="PLAN"><polygon fill="#181818" points="526.0718,312.4922,536.0718,316.4922,526.0718,320.4922,530.0718,316.4922" style="stroke:#181818;stroke-width:1;"/><line style="stroke:#181818;stroke-width:1;" x1="313.0659" x2="532.0718" y1="316.4922" y2="316.4922"/><text fill="#000000" font-family="sans-serif" font-size="13" font-weight="bold" lengthAdjust="spacing" textLength="9.0454" x="320.0659" y="311.4263">6</text><text fill="#000000" font-family="sans-serif" font-size="13" lengthAdjust="spacing" textLength="181.9175" x="333.1113" y="311.4263">POST /agent/execute(steps)</text></g><g class="message" data-participant-1="PLAN" data-participant-2="PX"><polygon fill="#181818" points="732.8789,341.625,742.8789,345.625,732.8789,349.625,736.8789,345.625" style="stroke:#181818;stroke-width:1;"/><line style="stroke:#181818;stroke-width:1;" x1="538.0718" x2="738.8789" y1="345.625" y2="345.625"/><text fill="#000000" font-family="sans-serif" font-size="13" font-weight="bold" lengthAdjust="spacing" textLength="9.0454" x="545.0718" y="340.5591">7</text><text fill="#000000" font-family="sans-serif" font-size="13" lengthAdjust="spacing" textLength="97.208" x="558.1172" y="340.5591">execute(steps)</text></g><g class="message" data-participant-1="PX" data-participant-2="S"><polygon fill="#181818" points="984.7925,370.7578,994.7925,374.7578,984.7925,378.7578,988.7925,374.7578" style="stroke:#181818;stroke-width:1;"/><line style="stroke:#181818;stroke-width:1;" x1="744.8789" x2="990.7925" y1="374.7578" y2="374.7578"/><text fill="#000000" font-family="sans-serif" font-size="13" font-weight="bold" lengthAdjust="spacing" textLength="9.0454" x="751.8789" y="369.6919">8</text><text fill="#000000" font-family="sans-serif" font-size="13" lengthAdjust="spacing" textLength="214.8682" x="764.9243" y="369.6919">scrape_city(Colombo, Kandy, 7d)</text></g><g class="message" data-participant-1="S" data-participant-2="OM"><polygon fill="#181818" points="1620.043,399.8906,1630.043,403.8906,1620.043,407.8906,1624.043,403.8906" style="stroke:#181818;stroke-width:1;"/><line style="stroke:#181818;stroke-width:1;" x1="996.7925" x2="1626.043" y1="403.8906" y2="403.8906"/><text fill="#000000" font-family="sans-serif" font-size="13" font-weight="bold" lengthAdjust="spacing" textLength="9.0454" x="1003.7925" y="398.8247">9</text><text fill="#000000" font-family="sans-serif" font-size="13" lengthAdjust="spacing" textLength="162.1128" x="1016.8379" y="398.8247">fetch hourly PM2.5/PM10</text></g><g class="message" data-participant-1="OM" data-participant-2="S"><polygon fill="#181818" points="1007.7925,429.0234,997.7925,433.0234,1007.7925,437.0234,1003.7925,433.0234" style="stroke:#181818;stroke-width:1;"/><line style="stroke:#181818;stroke-width:1;stroke-dasharray:2,2;" x1="1001.7925" x2="1631.043" y1="433.0234" y2="433.0234"/><text fill="#000000" font-family="sans-serif" font-size="13" font-weight="bold" lengthAdjust="spacing" textLength="18.0908" x="1013.7925" y="427.9575">10</text><text fill="#000000" font-family="sans-serif" font-size="13" lengthAdjust="spacing" textLength="29.2817" x="1035.8833" y="427.9575">data</text></g><g class="message" data-participant-1="S" data-participant-2="DB"><polygon fill="#181818" points="1412.0112,458.1563,1422.0112,462.1563,1412.0112,466.1563,1416.0112,462.1563" style="stroke:#181818;stroke-width:1;"/><line style="stroke:#181818;stroke-width:1;" x1="996.7925" x2="1418.0112" y1="462.1563" y2="462.1563"/><text fill="#000000" font-family="sans-serif" font-size="13" font-weight="bold" lengthAdjust="spacing" textLength="18.0908" x="1003.7925" y="457.0903">11</text><text fill="#000000" font-family="sans-serif" font-size="13" lengthAdjust="spacing" textLength="76.54" x="1025.8833" y="457.0903">upsert rows</text></g><g class="message" data-participant-1="PX" data-participant-2="C"><polygon fill="#181818" points="1070.6646,487.2891,1080.6646,491.2891,1070.6646,495.2891,1074.6646,491.2891" style="stroke:#181818;stroke-width:1;"/><line style="stroke:#181818;stroke-width:1;" x1="744.8789" x2="1076.6646" y1="491.2891" y2="491.2891"/><text fill="#000000" font-family="sans-serif" font-size="13" font-weight="bold" lengthAdjust="spacing" textLength="18.0908" x="751.8789" y="486.2231">12</text><text fill="#000000" font-family="sans-serif" font-size="13" lengthAdjust="spacing" textLength="124.7314" x="773.9697" y="486.2231">compare_cities(7d)</text></g><g class="message" data-participant-1="C" data-participant-2="DB"><polygon fill="#181818" points="1412.0112,516.4219,1422.0112,520.4219,1412.0112,524.4219,1416.0112,520.4219" style="stroke:#181818;stroke-width:1;"/><line style="stroke:#181818;stroke-width:1;" x1="1082.6646" x2="1418.0112" y1="520.4219" y2="520.4219"/><text fill="#000000" font-family="sans-serif" font-size="13" font-weight="bold" lengthAdjust="spacing" textLength="18.0908" x="1089.6646" y="515.356">13</text><text fill="#000000" font-family="sans-serif" font-size="13" lengthAdjust="spacing" textLength="80.0439" x="1111.7554" y="515.356">SELECT KPIs</text></g><g class="message" data-participant-1="DB" data-participant-2="C"><polygon fill="#181818" points="1093.6646,545.5547,1083.6646,549.5547,1093.6646,553.5547,1089.6646,549.5547" style="stroke:#181818;stroke-width:1;"/><line style="stroke:#181818;stroke-width:1;stroke-dasharray:2,2;" x1="1087.6646" x2="1423.0112" y1="549.5547" y2="549.5547"/><text fill="#000000" font-family="sans-serif" font-size="13" font-weight="bold" lengthAdjust="spacing" textLength="18.0908" x="1099.6646" y="544.4888">14</text><text fill="#000000" font-family="sans-serif" font-size="13" lengthAdjust="spacing" textLength="26.9712" x="1121.7554" y="544.4888">KPIs</text></g><g class="message" data-participant-1="C" data-participant-2="PX"><polygon fill="#181818" points="755.8789,574.6875,745.8789,578.6875,755.8789,582.6875,751.8789,578.6875" style="stroke:#181818;stroke-width:1;"/><line style="stroke:#181818;stroke-width:1;stroke-dasharray:2,2;" x1="749.8789" x2="1081.6646" y1="578.6875" y2="578.6875"/><text fill="#000000" font-family="sans-serif" font-size="13" font-weight="bold" lengthAdjust="spacing" textLength="18.0908" x="761.8789" y="573.6216">15</text><text fill="#000000" font-family="sans-serif" font-size="13" lengthAdjust="spacing" textLength="26.9712" x="783.9697" y="573.6216">KPIs</text></g><g class="message" data-participant-1="PX" data-participant-2="F"><polygon fill="#181818" points="1166.6572,603.8203,1176.6572,607.8203,1166.6572,611.8203,1170.6572,607.8203" style="stroke:#181818;stroke-width:1;"/><line style="stroke:#181818;stroke-width:1;" x1="744.8789" x2="1172.6572" y1="607.8203" y2="607.8203"/><text fill="#000000" font-family="sans-serif" font-size="13" font-weight="bold" lengthAdjust="spacing" textLength="18.0908" x="751.8789" y="602.7544">16</text><text fill="#000000" font-family="sans-serif" font-size="13" lengthAdjust="spacing" textLength="225.6528" x="773.9697" y="602.7544">forecast_multi(Colombo,Kandy,7d)</text></g><g class="message" data-participant-1="F" data-participant-2="DB"><polygon fill="#181818" points="1412.0112,632.9531,1422.0112,636.9531,1412.0112,640.9531,1416.0112,636.9531" style="stroke:#181818;stroke-width:1;"/><line style="stroke:#181818;stroke-width:1;" x1="1178.6572" x2="1418.0112" y1="636.9531" y2="636.9531"/><text fill="#000000" font-family="sans-serif" font-size="13" font-weight="bold" lengthAdjust="spacing" textLength="18.0908" x="1185.6572" y="631.8872">17</text><text fill="#000000" font-family="sans-serif" font-size="13" lengthAdjust="spacing" textLength="137.5093" x="1207.748" y="631.8872">read training window</text></g><g class="message" data-participant-1="F" data-participant-2="MS"><polygon fill="#181818" points="1497.9438,662.0859,1507.9438,666.0859,1497.9438,670.0859,1501.9438,666.0859" style="stroke:#181818;stroke-width:1;"/><line style="stroke:#181818;stroke-width:1;" x1="1178.6572" x2="1503.9438" y1="666.0859" y2="666.0859"/><text fill="#000000" font-family="sans-serif" font-size="13" font-weight="bold" lengthAdjust="spacing" textLength="18.0908" x="1185.6572" y="661.02">18</text><text fill="#000000" font-family="sans-serif" font-size="13" lengthAdjust="spacing" textLength="136.938" x="1207.748" y="661.02">load model (if exists)</text></g><g class="message" data-participant-1="F" data-participant-2="F"><line style="stroke:#181818;stroke-width:1;" x1="1178.6572" x2="1220.6572" y1="695.2188" y2="695.2188"/><line style="stroke:#181818;stroke-width:1;" x1="1220.6572" x2="1220.6572" y1="695.2188" y2="708.2188"/><line style="stroke:#181818;stroke-width:1;" x1="1179.6572" x2="1220.6572" y1="708.2188" y2="708.2188"/><polygon fill="#181818" points="1189.6572,704.2188,1179.6572,708.2188,1189.6572,712.2188,1185.6572,708.2188" style="stroke:#181818;stroke-width:1;"/><text fill="#000000" font-family="sans-serif" font-size="13" font-weight="bold" lengthAdjust="spacing" textLength="18.0908" x="1185.6572" y="690.1528">19</text><text fill="#000000" font-family="sans-serif" font-size="13" lengthAdjust="spacing" textLength="209.2632" x="1207.748" y="690.1528">train/refresh SARIMAX if needed</text></g><g class="message" data-participant-1="F" data-participant-2="MS"><polygon fill="#181818" points="1497.9438,733.3516,1507.9438,737.3516,1497.9438,741.3516,1501.9438,737.3516" style="stroke:#181818;stroke-width:1;"/><line style="stroke:#181818;stroke-width:1;" x1="1178.6572" x2="1503.9438" y1="737.3516" y2="737.3516"/><text fill="#000000" font-family="sans-serif" font-size="13" font-weight="bold" lengthAdjust="spacing" textLength="18.0908" x="1185.6572" y="732.2856">20</text><text fill="#000000" font-family="sans-serif" font-size="13" lengthAdjust="spacing" textLength="75.042" x="1207.748" y="732.2856">save model</text></g><g class="message" data-participant-1="F" data-participant-2="PX"><polygon fill="#181818" points="755.8789,762.4844,745.8789,766.4844,755.8789,770.4844,751.8789,766.4844" style="stroke:#181818;stroke-width:1;"/><line style="stroke:#181818;stroke-width:1;stroke-dasharray:2,2;" x1="749.8789" x2="1177.6572" y1="766.4844" y2="766.4844"/><text fill="#000000" font-family="sans-serif" font-size="13" font-weight="bold" lengthAdjust="spacing" textLength="18.0908" x="761.8789" y="761.4185">21</text><text fill="#000000" font-family="sans-serif" font-size="13" lengthAdjust="spacing" textLength="130.0444" x="783.9697" y="761.4185">yhat + CI (lower&#8805;0)</text></g><g class="message" data-participant-1="PX" data-participant-2="PLAN"><polygon fill="#181818" points="549.0718,791.6172,539.0718,795.6172,549.0718,799.6172,545.0718,795.6172" style="stroke:#181818;stroke-width:1;"/><line style="stroke:#181818;stroke-width:1;stroke-dasharray:2,2;" x1="543.0718" x2="743.8789" y1="795.6172" y2="795.6172"/><text fill="#000000" font-family="sans-serif" font-size="13" font-weight="bold" lengthAdjust="spacing" textLength="18.0908" x="555.0718" y="790.5513">22</text><text fill="#000000" font-family="sans-serif" font-size="13" lengthAdjust="spacing" textLength="160.7163" x="577.1626" y="790.5513">final payload + full trace</text></g><g class="message" data-participant-1="PLAN" data-participant-2="SPA"><polygon fill="#181818" points="324.0659,820.75,314.0659,824.75,324.0659,828.75,320.0659,824.75" style="stroke:#181818;stroke-width:1;"/><line style="stroke:#181818;stroke-width:1;stroke-dasharray:2,2;" x1="318.0659" x2="537.0718" y1="824.75" y2="824.75"/><text fill="#000000" font-family="sans-serif" font-size="13" font-weight="bold" lengthAdjust="spacing" textLength="18.0908" x="330.0659" y="819.6841">23</text><text fill="#000000" font-family="sans-serif" font-size="13" lengthAdjust="spacing" textLength="178.915" x="352.1567" y="819.6841">results JSON (KPIs + series)</text></g><g class="message" data-participant-1="SPA" data-participant-2="U"><polygon fill="#181818" points="34.9551,849.8828,24.9551,853.8828,34.9551,857.8828,30.9551,853.8828" style="stroke:#181818;stroke-width:1;"/><line style="stroke:#181818;stroke-width:1;stroke-dasharray:2,2;" x1="28.9551" x2="312.0659" y1="853.8828" y2="853.8828"/><text fill="#000000" font-family="sans-serif" font-size="13" font-weight="bold" lengthAdjust="spacing" textLength="18.0908" x="40.9551" y="848.8169">24</text><text fill="#000000" font-family="sans-serif" font-size="13" lengthAdjust="spacing" textLength="173.437" x="63.0459" y="848.8169">charts, KPI cards, CI bands</text></g><!--SRC=[VLF1Rjf04BtlLumuL4R19QrKLSgX4d50ek3Wna5o9QHeiOTWTRrhxIwb_e5AlVOV-cFvaiwk3Oqvz8HttfkPDsy6Vh1A7gejQiPpgpIi3MhW1jQivjgMULbpQM7mW0H3cam63gJVFZpZnawIEOpvCqexhWMNdfWi9_TzPaAGf1PlOFe3S-gkMsBMfwMvvZMsMDg78bNHkyEY2nrAOqvQEdJ62cxvbXk4GToaNvO-UdVRJufLWG9Iae8UZoyQhcgKOOmM5T2CdhAA6Lj3-Cav0JUGQD9aRqwo8L92LLj5GowuB1huM8msCczrKt3NgQJuWBaALCWvvIgjqiVNBcvaa8KE6q4MKlTmCVqwP9xiaZ9ASRIWzWe8oSvnRhx1Kl2AGo1KpWMiX7iDD_Bbvs_udAxkWOogGPJ6-hn_Abn93vh_o4E_FmmyRyZweYx0LbPAWF4EFUMbROBEfb7hqeZi6BBK4LSnCNTeyptirK6B1fBu_TiFuoH-Tyq83BjYRhjjnjqjFGyr7Qy5hOw6TIqZ2dV6kvubci1rYSuvwNGvZHvXaSmDeq3OvVXtr7gIdTvTpPaJrwtmgJe8MvudQGTn7MRd3Xfv0LRpKfRo6OwbBDInXMCtWr04L_u4Wt97nj4wJ9VlEldCiSQTHhE7TF8mZoSP45CY5bYygcJuTsmhkU19URFd5guWchipEA9- -VNdUiWk5huh9Hr8pHklvWfs1o5SvnoxjPvFdLJGnAQzdy3PGdIodPmTjiT2rBLpVK__8JDopa7ETK6Vf65B1fc_]--></g></svg>